<?xml version='1.0' encoding='ASCII' standalone='yes'?>
<svg xmlns="http://www.w3.org/2000/svg" xmlns:xlink="http://www.w3.org/1999/xlink" version="1.1" width="32" viewBox="0 0 32 32" height="32">
  <g><metadata xmlns:rdf="http://www.w3.org/1999/02/22-rdf-syntax-ns#" xmlns:cc="http://creativecommons.org/ns#" xmlns:dc="http://purl.org/dc/elements/1.1/" id="metadata8">
    <rdf:RDF>
      <cc:Work rdf:about="">
        <dc:format>image/svg+xml</dc:format>
        <dc:type rdf:resource="http://purl.org/dc/dcmitype/StillImage"/>
        <dc:title/>
      </cc:Work>
    </rdf:RDF>
  </metadata>
  <defs xmlns:inkscape="http://www.inkscape.org/namespaces/inkscape" xmlns:sodipodi="http://sodipodi.sourceforge.net/DTD/sodipodi-0.dtd" id="defs6">
    <clipPath clipPathUnits="userSpaceOnUse" id="clipPath863">
      <path inkscape:connector-curvature="0" id="path865" d="M -0.64820454,23.090029 -5.2132498,27.655074 -16.068263,16.800061 -11.503218,12.235016 Z" style="fill:none;stroke:#000000;stroke-width:1.33333337;stroke-linecap:butt;stroke-linejoin:miter;stroke-miterlimit:4;stroke-dasharray:none;stroke-opacity:1"/>
    </clipPath>
    <clipPath clipPathUnits="userSpaceOnUse" id="clipPath915">
      <path style="opacity:1;fill:none;fill-opacity:1;stroke:#000000;stroke-width:1.33299994;stroke-linejoin:miter;stroke-miterlimit:4;stroke-dasharray:none;stroke-opacity:1" d="m 34.371406,23.999728 -10.370899,10.3709 c 0,0 -3.870164,-3.863658 -5.198227,-5.198261 -1.319552,-1.326057 -2.135107,-3.154104 -2.135107,-5.172641 0,-4.050089 3.283245,-7.333334 7.333334,-7.333334 2.035808,0 3.877861,0.82956 5.206568,2.169087 1.314636,1.325384 5.164331,5.164249 5.164331,5.164249 z" id="path917" inkscape:connector-curvature="0" sodipodi:nodetypes="ccssssc"/>
    </clipPath>
    <clipPath clipPathUnits="userSpaceOnUse" id="clipPath1057">
      <path style="opacity:1;fill:none;fill-opacity:1;stroke:#00ff00;stroke-width:0.13333333;stroke-linejoin:miter;stroke-miterlimit:4;stroke-dasharray:none;stroke-opacity:1" d="m 16.736652,16.666723 -1e-6,14.666666 c 0,0 5.468638,0.0046 7.351428,-2.3e-5 1.870728,-0.0046 3.740037,-0.72054 5.167358,-2.147861 2.863845,-2.863846 2.863845,-7.507055 0,-10.370901 -1.439533,-1.439533 -3.328649,-2.155474 -5.215375,-2.147823 -1.866776,0.0076 -7.30341,-5.8e-5 -7.30341,-5.8e-5 z" id="path1059" inkscape:connector-curvature="0" sodipodi:nodetypes="ccssssc"/>
    </clipPath>
    <clipPath clipPathUnits="userSpaceOnUse" id="clipPath1126">
      <path sodipodi:nodetypes="csscc" inkscape:connector-curvature="0" id="path1128" d="m 7.91192,31.333367 c 0,0 -3.740037,-0.72054 -5.167358,-2.147861 -2.863845,-2.863846 -2.863845,-7.507055 0,-10.370901 1.439533,-1.439533 5.215375,-2.147823 5.215375,-2.147823 z" style="opacity:1;fill:none;fill-opacity:1;stroke:#00ff00;stroke-width:0.13333333;stroke-linejoin:miter;stroke-miterlimit:4;stroke-dasharray:none;stroke-opacity:1"/>
    </clipPath>
  </defs>
  <sodipodi:namedview xmlns:sodipodi="http://sodipodi.sourceforge.net/DTD/sodipodi-0.dtd" xmlns:inkscape="http://www.inkscape.org/namespaces/inkscape" pagecolor="#ffffff" bordercolor="#666666" borderopacity="1" objecttolerance="10" gridtolerance="10" guidetolerance="10" inkscape:pageopacity="0" inkscape:pageshadow="2" inkscape:window-width="1879" inkscape:window-height="1052" id="namedview4" showgrid="true" inkscape:snap-bbox="true" inkscape:snap-smooth-nodes="false" inkscape:object-paths="true" inkscape:bbox-paths="true" inkscape:bbox-nodes="true" inkscape:snap-bbox-edge-midpoints="true" inkscape:snap-bbox-midpoints="true" inkscape:snap-intersection-paths="false" inkscape:zoom="45.254834" inkscape:cx="16.693853" inkscape:cy="8.5554646" inkscape:window-x="1961" inkscape:window-y="0" inkscape:window-maximized="1" inkscape:current-layer="svg2">
    <inkscape:grid type="xygrid" id="grid817" units="pt" spacingx="0.66666667" spacingy="0.66666667"/>
  </sodipodi:namedview>
  <path xmlns:inkscape="http://www.inkscape.org/namespaces/inkscape" xmlns:sodipodi="http://sodipodi.sourceforge.net/DTD/sodipodi-0.dtd" style="opacity:1;fill:#be2b2b;fill-opacity:1;stroke:#e98b8b;stroke-width:1.33299994;stroke-linejoin:miter;stroke-miterlimit:4;stroke-dasharray:none;stroke-opacity:1" d="m 16.6665,18.000773 -10e-7,14.666666 c 0,0 5.468638,0.0046 7.351428,-2.3e-5 1.870728,-0.0046 3.740037,-0.72054 5.167358,-2.147861 2.863845,-2.863846 2.863845,-7.507055 0,-10.370901 -1.439533,-1.439533 -3.328649,-2.155474 -5.215375,-2.147823 -1.866776,0.0076 -7.30341,-5.8e-5 -7.30341,-5.8e-5 z" id="path819-2" inkscape:connector-curvature="0" sodipodi:nodetypes="ccssssc" clip-path="url(#clipPath1057)" transform="matrix(-1,0,0,1,31.999999,1.01e-6)"/>
  <ellipse style="opacity:1;fill:none;fill-opacity:1;stroke:#e98b8b;stroke-width:1.33333337;stroke-linecap:round;stroke-linejoin:miter;stroke-miterlimit:4;stroke-dasharray:none;stroke-opacity:1" id="path1124" cx="7.666667" cy="24.666666" rx="6.3333335" ry="6.6666665" clip-path="url(#clipPath1126)"/>
  <path xmlns:sodipodi="http://sodipodi.sourceforge.net/DTD/sodipodi-0.dtd" xmlns:inkscape="http://www.inkscape.org/namespaces/inkscape" sodipodi:nodetypes="ccssssc" inkscape:connector-curvature="0" id="path1022" d="m 15.333332,16.666668 10e-7,14.666665 c 0,0 -5.4686372,0.0046 -7.3514272,-2.3e-5 -1.870728,-0.0046 -3.740037,-0.72054 -5.167358,-2.147861 -2.86384498,-2.863846 -2.86384498,-7.507055 0,-10.370901 1.439533,-1.439533 3.328649,-2.155473 5.215375,-2.147822 1.866776,0.0076 7.3034092,-5.8e-5 7.3034092,-5.8e-5 z" style="opacity:1;fill:none;fill-opacity:1;stroke:#b01212;stroke-width:1.33299994;stroke-linejoin:miter;stroke-miterlimit:4;stroke-dasharray:none;stroke-opacity:1"/>
  <path xmlns:inkscape="http://www.inkscape.org/namespaces/inkscape" style="fill:#ffffff;fill-opacity:1;stroke:#fffffd;stroke-width:2.66666675;stroke-linecap:round;stroke-linejoin:round;stroke-miterlimit:4;stroke-dasharray:none;stroke-opacity:1" d="m 8.6666667,20.631713 c 0,4.70162 0,4.70162 0,4.70162" id="path843" inkscape:connector-curvature="0"/>
  <circle style="opacity:1;fill:#ffffff;fill-opacity:1;stroke:none;stroke-width:1.33333337;stroke-linecap:round;stroke-linejoin:round;stroke-miterlimit:4;stroke-dasharray:none;stroke-opacity:1" id="path845" cx="8.666667" cy="28.666666" r="1.3333334"/>
  <rect style="opacity:1;fill:#881616;fill-opacity:1;stroke:none;stroke-width:1.33299994;stroke-linecap:round;stroke-linejoin:miter;stroke-miterlimit:4;stroke-dasharray:none;stroke-opacity:1" id="rect867-1" width="1.3333334" height="13.322912" x="14.666667" y="17.333334"/>
</g>
  <g><metadata xmlns:rdf="http://www.w3.org/1999/02/22-rdf-syntax-ns#" xmlns:cc="http://creativecommons.org/ns#" xmlns:dc="http://purl.org/dc/elements/1.1/" id="metadata8">
    <rdf:RDF>
      <cc:Work rdf:about="">
        <dc:format>image/svg+xml</dc:format>
        <dc:type rdf:resource="http://purl.org/dc/dcmitype/StillImage"/>
        <dc:title/>
      </cc:Work>
    </rdf:RDF>
  </metadata>
  <defs xmlns:inkscape="http://www.inkscape.org/namespaces/inkscape" xmlns:sodipodi="http://sodipodi.sourceforge.net/DTD/sodipodi-0.dtd" id="defs6">
    <clipPath clipPathUnits="userSpaceOnUse" id="clipPath863">
      <path inkscape:connector-curvature="0" id="path865" d="M -0.64820454,23.090029 -5.2132498,27.655074 -16.068263,16.800061 -11.503218,12.235016 Z" style="fill:none;stroke:#000000;stroke-width:1.33333337;stroke-linecap:butt;stroke-linejoin:miter;stroke-miterlimit:4;stroke-dasharray:none;stroke-opacity:1"/>
    </clipPath>
    <clipPath clipPathUnits="userSpaceOnUse" id="clipPath915">
      <path style="opacity:1;fill:none;fill-opacity:1;stroke:#000000;stroke-width:1.33299994;stroke-linejoin:miter;stroke-miterlimit:4;stroke-dasharray:none;stroke-opacity:1" d="m 34.371406,23.999728 -10.370899,10.3709 c 0,0 -3.870164,-3.863658 -5.198227,-5.198261 -1.319552,-1.326057 -2.135107,-3.154104 -2.135107,-5.172641 0,-4.050089 3.283245,-7.333334 7.333334,-7.333334 2.035808,0 3.877861,0.82956 5.206568,2.169087 1.314636,1.325384 5.164331,5.164249 5.164331,5.164249 z" id="path917" inkscape:connector-curvature="0" sodipodi:nodetypes="ccssssc"/>
    </clipPath>
    <clipPath clipPathUnits="userSpaceOnUse" id="clipPath1057">
      <path style="opacity:1;fill:none;fill-opacity:1;stroke:#00ff00;stroke-width:0.13333333;stroke-linejoin:miter;stroke-miterlimit:4;stroke-dasharray:none;stroke-opacity:1" d="m 16.736652,16.666723 -1e-6,14.666666 c 0,0 5.468638,0.0046 7.351428,-2.3e-5 1.870728,-0.0046 3.740037,-0.72054 5.167358,-2.147861 2.863845,-2.863846 2.863845,-7.507055 0,-10.370901 -1.439533,-1.439533 -3.328649,-2.155474 -5.215375,-2.147823 -1.866776,0.0076 -7.30341,-5.8e-5 -7.30341,-5.8e-5 z" id="path1059" inkscape:connector-curvature="0" sodipodi:nodetypes="ccssssc"/>
    </clipPath>
  </defs>
  <sodipodi:namedview xmlns:sodipodi="http://sodipodi.sourceforge.net/DTD/sodipodi-0.dtd" xmlns:inkscape="http://www.inkscape.org/namespaces/inkscape" pagecolor="#ffffff" bordercolor="#666666" borderopacity="1" objecttolerance="10" gridtolerance="10" guidetolerance="10" inkscape:pageopacity="0" inkscape:pageshadow="2" inkscape:window-width="1879" inkscape:window-height="1025" id="namedview4" showgrid="true" inkscape:snap-bbox="true" inkscape:snap-smooth-nodes="true" inkscape:object-paths="true" inkscape:bbox-paths="true" inkscape:bbox-nodes="true" inkscape:snap-bbox-edge-midpoints="true" inkscape:snap-bbox-midpoints="true" inkscape:snap-intersection-paths="true" inkscape:zoom="45.254836" inkscape:cx="24.385361" inkscape:cy="9.1147476" inkscape:window-x="41" inkscape:window-y="27" inkscape:window-maximized="1" inkscape:current-layer="svg2">
    <inkscape:grid type="xygrid" id="grid817" units="pt" spacingx="0.66666667" spacingy="0.66666667"/>
  </sodipodi:namedview>
  <path xmlns:inkscape="http://www.inkscape.org/namespaces/inkscape" xmlns:sodipodi="http://sodipodi.sourceforge.net/DTD/sodipodi-0.dtd" style="opacity:1;fill:#be2b2b;fill-opacity:1;stroke:#e98b8b;stroke-width:1.33299994;stroke-linejoin:miter;stroke-miterlimit:4;stroke-dasharray:none;stroke-opacity:1" d="m 16.6665,18.000773 -10e-7,14.666666 c 0,0 5.468638,0.0046 7.351428,-2.3e-5 1.870728,-0.0046 3.740037,-0.72054 5.167358,-2.147861 2.863845,-2.863846 2.863845,-7.507055 0,-10.370901 -1.439533,-1.439533 -3.328649,-2.155474 -5.215375,-2.147823 -1.866776,0.0076 -7.30341,-5.8e-5 -7.30341,-5.8e-5 z" id="path819-2" inkscape:connector-curvature="0" sodipodi:nodetypes="ccssssc" clip-path="url(#clipPath1057)"/>
  <path xmlns:sodipodi="http://sodipodi.sourceforge.net/DTD/sodipodi-0.dtd" xmlns:inkscape="http://www.inkscape.org/namespaces/inkscape" sodipodi:nodetypes="ccssssc" inkscape:connector-curvature="0" id="path1022" d="m 16.666667,16.666667 -1e-6,14.666665 c 0,0 5.468638,0.0046 7.351428,-2.3e-5 1.870728,-0.0046 3.740037,-0.72054 5.167358,-2.147861 2.863845,-2.863846 2.863845,-7.507055 0,-10.370901 -1.439533,-1.439533 -3.328649,-2.155473 -5.215375,-2.147822 -1.866776,0.0076 -7.30341,-5.8e-5 -7.30341,-5.8e-5 z" style="opacity:1;fill:none;fill-opacity:1;stroke:#b01212;stroke-width:1.33299994;stroke-linejoin:miter;stroke-miterlimit:4;stroke-dasharray:none;stroke-opacity:1"/>
  <path xmlns:inkscape="http://www.inkscape.org/namespaces/inkscape" xmlns:sodipodi="http://sodipodi.sourceforge.net/DTD/sodipodi-0.dtd" style="fill:none;stroke:#ffffff;stroke-width:2.66666651;stroke-linecap:round;stroke-linejoin:round;stroke-miterlimit:4;stroke-dasharray:none;stroke-opacity:1" d="m 26.647677,24.000208 -3.383463,-5.53e-4 -3.283204,5.53e-4" id="path873" inkscape:connector-curvature="0" sodipodi:nodetypes="ccc"/>
  <path xmlns:inkscape="http://www.inkscape.org/namespaces/inkscape" style="fill:none;stroke:#e98b8b;stroke-width:1.33333337;stroke-linecap:square;stroke-linejoin:miter;stroke-miterlimit:4;stroke-dasharray:none;stroke-opacity:1" d="M 16.666667,30 V 18 h 0.666666" id="path825" inkscape:connector-curvature="0"/>
</g>
</svg>
