<?xml version='1.0' encoding='ASCII' standalone='yes'?>
<svg xmlns="http://www.w3.org/2000/svg" xmlns:xlink="http://www.w3.org/1999/xlink" version="1.1" width="32" viewBox="0 0 32 32" height="32">
  <g transform="translate(-16, -16) scale(1.5) "><metadata xmlns:rdf="http://www.w3.org/1999/02/22-rdf-syntax-ns#" xmlns:cc="http://creativecommons.org/ns#" xmlns:dc="http://purl.org/dc/elements/1.1/" id="metadata8">
    <rdf:RDF>
      <cc:Work rdf:about="">
        <dc:format>image/svg+xml</dc:format>
        <dc:type rdf:resource="http://purl.org/dc/dcmitype/StillImage"/>
        <dc:title/>
      </cc:Work>
    </rdf:RDF>
  </metadata>
  <defs id="defs6"/>
  <sodipodi:namedview xmlns:sodipodi="http://sodipodi.sourceforge.net/DTD/sodipodi-0.dtd" xmlns:inkscape="http://www.inkscape.org/namespaces/inkscape" inkscape:guide-bbox="true" showguides="true" pagecolor="#ffffff" bordercolor="#666666" borderopacity="1" objecttolerance="10" gridtolerance="10" guidetolerance="10" inkscape:pageopacity="0" inkscape:pageshadow="2" inkscape:window-width="1411" inkscape:window-height="763" id="namedview4" showgrid="false" inkscape:snap-bbox="true" inkscape:bbox-paths="true" inkscape:bbox-nodes="true" inkscape:snap-nodes="false" inkscape:zoom="11.313709" inkscape:cx="3.5469246" inkscape:cy="27.227343" inkscape:window-x="-285" inkscape:window-y="59" inkscape:window-maximized="0" inkscape:current-layer="svg2" inkscape:document-rotation="0" inkscape:snap-bbox-edge-midpoints="true">
    <inkscape:grid type="xygrid" id="grid817" units="px" spacingx="1" spacingy="1" empspacing="2"/>
  </sodipodi:namedview>
  <g xmlns:inkscape="http://www.inkscape.org/namespaces/inkscape" xmlns:sodipodi="http://sodipodi.sourceforge.net/DTD/sodipodi-0.dtd" id="g850">
    <path style="fill:#ffffff;fill-opacity:1;stroke-width:0.999581" inkscape:connector-curvature="0" d="m 31.698198,23.287294 -6.985684,-6.985487 c -0.402226,-0.40241 -1.054669,-0.40241 -1.457244,0 l -1.450453,1.450833 -0.712864,0.712531 -4.790153,4.789736 c -0.402401,0.402757 -0.402401,1.055215 0,1.457624 l 6.986031,6.985662 c 0.402227,0.402409 1.054496,0.402409 1.457245,0 l 6.953122,-6.953274 c 0.402401,-0.40241 0.402401,-1.055215 0,-1.457625 z" id="path2-6" sodipodi:nodetypes="cccccccccsc"/>
    <path style="fill:#f05133;stroke-width:0.999581" inkscape:connector-curvature="0" d="m 31.698198,23.287294 -6.985683,-6.985486 c -0.402227,-0.40241 -1.05467,-0.40241 -1.457244,0 l -1.450454,1.450833 1.839969,1.840008 c 0.427649,-0.144526 0.917982,-0.04754 1.258743,0.293406 0.34285,0.343032 0.438967,0.837555 0.290787,1.26678 l 1.773628,1.773492 c 0.429216,-0.148008 0.924076,-0.05224 1.266753,0.290968 0.478841,0.478852 0.478841,1.254765 0,1.733965 -0.47919,0.479026 -1.255087,0.479026 -1.73445,0 -0.360089,-0.360444 -0.44924,-0.889793 -0.266584,-1.333471 l -1.654179,-1.65404 v 4.352674 c 0.116663,0.05781 0.226884,0.134775 0.324045,0.231938 0.478841,0.478852 0.478841,1.254766 0,1.73414 -0.478841,0.478677 -1.25526,0.478677 -1.733753,0 -0.478841,-0.479548 -0.478841,-1.255462 0,-1.73414 0.118404,-0.118233 0.25544,-0.207734 0.401704,-0.267634 v -4.393246 c -0.146264,-0.0599 -0.282952,-0.148532 -0.401704,-0.267635 -0.362701,-0.362534 -0.449937,-0.895017 -0.263972,-1.340436 l -1.813851,-1.814238 -4.790152,4.789735 c -0.402401,0.402757 -0.402401,1.055215 0,1.457624 l 6.986031,6.985661 c 0.402226,0.402409 1.054495,0.402409 1.457244,0 l 6.953122,-6.953273 c 0.4024,-0.40241 0.4024,-1.055215 0,-1.457625 z" id="path2"/>
    <rect rx="0.59939891" ry="0.59939891" transform="rotate(-45.000014)" y="28.478476" x="-5.4626412" height="10.925296" width="10.925296" id="rect868" style="fill:none;stroke:#b0280f;stroke-width:1.05347;stroke-linecap:round;stroke-linejoin:round;stroke-miterlimit:4;stroke-dasharray:none;stop-color:#000000;stroke-opacity:1"/>
    <rect transform="rotate(45)" y="-1.8571118" x="28.841606" height="6.9036808" width="1.153457" id="rect884" style="fill:#f07760;fill-opacity:1;stroke:none;stroke-width:0.953339;stroke-linecap:round;stroke-linejoin:round;stroke-miterlimit:4;stroke-dasharray:none;stroke-opacity:1;stop-color:#000000"/>
    <rect style="fill:#f07760;fill-opacity:1;stroke:none;stroke-width:0.953339;stroke-linecap:round;stroke-linejoin:round;stroke-miterlimit:4;stroke-dasharray:none;stroke-opacity:1;stop-color:#000000" id="rect884-5" width="1.1907852" height="2.1829555" x="28.801678" y="-5.048306" transform="rotate(45)"/>
    <rect style="fill:none;stroke:#b0280f;stroke-width:1.05347;stroke-linecap:round;stroke-linejoin:round;stroke-miterlimit:4;stroke-dasharray:none;stroke-opacity:1;stop-color:#000000" id="rect868-6" width="10.925296" height="10.925296" x="-5.4626555" y="28.478477" transform="rotate(-45.000014)" ry="0.59939891" rx="0.59939891"/>
  </g>
</g>
</svg>
