<?xml version="1.0" encoding="UTF-8" standalone="no"?>
<!-- Created with Inkscape (http://www.inkscape.org/) -->

<svg
   xmlns:dc="http://purl.org/dc/elements/1.1/"
   xmlns:cc="http://creativecommons.org/ns#"
   xmlns:rdf="http://www.w3.org/1999/02/22-rdf-syntax-ns#"
   xmlns:svg="http://www.w3.org/2000/svg"
   xmlns="http://www.w3.org/2000/svg"
   xmlns:sodipodi="http://sodipodi.sourceforge.net/DTD/sodipodi-0.dtd"
   xmlns:inkscape="http://www.inkscape.org/namespaces/inkscape"
   version="1.1"
   id="svg2"
   width="32"
   height="32"
   viewBox="0 0 32 32"
   sodipodi:docname="unmerged added r.svg"
   inkscape:version="0.92.2 (5c3e80d, 2017-08-06)">
  <metadata
     id="metadata8">
    <rdf:RDF>
      <cc:Work
         rdf:about="">
        <dc:format>image/svg+xml</dc:format>
        <dc:type
           rdf:resource="http://purl.org/dc/dcmitype/StillImage" />
        <dc:title />
      </cc:Work>
    </rdf:RDF>
  </metadata>
  <defs
     id="defs6">
    <clipPath
       clipPathUnits="userSpaceOnUse"
       id="clipPath863">
      <path
         inkscape:connector-curvature="0"
         id="path865"
         d="M -0.64820454,23.090029 -5.2132498,27.655074 -16.068263,16.800061 -11.503218,12.235016 Z"
         style="fill:none;stroke:#000000;stroke-width:1.33333337;stroke-linecap:butt;stroke-linejoin:miter;stroke-miterlimit:4;stroke-dasharray:none;stroke-opacity:1" />
    </clipPath>
    <clipPath
       clipPathUnits="userSpaceOnUse"
       id="clipPath915">
      <path
         style="opacity:1;fill:none;fill-opacity:1;stroke:#000000;stroke-width:1.33299994;stroke-linejoin:miter;stroke-miterlimit:4;stroke-dasharray:none;stroke-opacity:1"
         d="m 34.371406,23.999728 -10.370899,10.3709 c 0,0 -3.870164,-3.863658 -5.198227,-5.198261 -1.319552,-1.326057 -2.135107,-3.154104 -2.135107,-5.172641 0,-4.050089 3.283245,-7.333334 7.333334,-7.333334 2.035808,0 3.877861,0.82956 5.206568,2.169087 1.314636,1.325384 5.164331,5.164249 5.164331,5.164249 z"
         id="path917"
         inkscape:connector-curvature="0"
         sodipodi:nodetypes="ccssssc" />
    </clipPath>
    <clipPath
       clipPathUnits="userSpaceOnUse"
       id="clipPath1057">
      <path
         style="opacity:1;fill:none;fill-opacity:1;stroke:#00ff00;stroke-width:0.13333333;stroke-linejoin:miter;stroke-miterlimit:4;stroke-dasharray:none;stroke-opacity:1"
         d="m 16.736652,16.666723 -1e-6,14.666666 c 0,0 5.468638,0.0046 7.351428,-2.3e-5 1.870728,-0.0046 3.740037,-0.72054 5.167358,-2.147861 2.863845,-2.863846 2.863845,-7.507055 0,-10.370901 -1.439533,-1.439533 -3.328649,-2.155474 -5.215375,-2.147823 -1.866776,0.0076 -7.30341,-5.8e-5 -7.30341,-5.8e-5 z"
         id="path1059"
         inkscape:connector-curvature="0"
         sodipodi:nodetypes="ccssssc" />
    </clipPath>
  </defs>
  <sodipodi:namedview
     pagecolor="#ffffff"
     bordercolor="#666666"
     borderopacity="1"
     objecttolerance="10"
     gridtolerance="10"
     guidetolerance="10"
     inkscape:pageopacity="0"
     inkscape:pageshadow="2"
     inkscape:window-width="1879"
     inkscape:window-height="1052"
     id="namedview4"
     showgrid="true"
     inkscape:snap-bbox="true"
     inkscape:snap-smooth-nodes="true"
     inkscape:object-paths="true"
     inkscape:bbox-paths="true"
     inkscape:bbox-nodes="true"
     inkscape:snap-bbox-edge-midpoints="true"
     inkscape:snap-bbox-midpoints="true"
     inkscape:snap-intersection-paths="true"
     inkscape:zoom="45.254836"
     inkscape:cx="21.288329"
     inkscape:cy="9.5956384"
     inkscape:window-x="1961"
     inkscape:window-y="0"
     inkscape:window-maximized="1"
     inkscape:current-layer="svg2">
    <inkscape:grid
       type="xygrid"
       id="grid817"
       units="pt"
       spacingx="0.66666667"
       spacingy="0.66666667" />
  </sodipodi:namedview>
  <path
     style="opacity:1;fill:#be2b2b;fill-opacity:1;stroke:#e98b8b;stroke-width:1.33299994;stroke-linejoin:miter;stroke-miterlimit:4;stroke-dasharray:none;stroke-opacity:1"
     d="m 16.6665,18.000773 -10e-7,14.666666 c 0,0 5.468638,0.0046 7.351428,-2.3e-5 1.870728,-0.0046 3.740037,-0.72054 5.167358,-2.147861 2.863845,-2.863846 2.863845,-7.507055 0,-10.370901 -1.439533,-1.439533 -3.328649,-2.155474 -5.215375,-2.147823 -1.866776,0.0076 -7.30341,-5.8e-5 -7.30341,-5.8e-5 z"
     id="path819-2"
     inkscape:connector-curvature="0"
     sodipodi:nodetypes="ccssssc"
     clip-path="url(#clipPath1057)" />
  <path
     sodipodi:nodetypes="ccssssc"
     inkscape:connector-curvature="0"
     id="path1022"
     d="m 16.666667,16.666667 -1e-6,14.666665 c 0,0 5.468638,0.0046 7.351428,-2.3e-5 1.870728,-0.0046 3.740037,-0.72054 5.167358,-2.147861 2.863845,-2.863846 2.863845,-7.507055 0,-10.370901 -1.439533,-1.439533 -3.328649,-2.155473 -5.215375,-2.147822 -1.866776,0.0076 -7.30341,-5.8e-5 -7.30341,-5.8e-5 z"
     style="opacity:1;fill:none;fill-opacity:1;stroke:#b01212;stroke-width:1.33299994;stroke-linejoin:miter;stroke-miterlimit:4;stroke-dasharray:none;stroke-opacity:1" />
  <path
     style="fill:none;stroke:#ffffff;stroke-width:2.66666651;stroke-linecap:round;stroke-linejoin:round;stroke-miterlimit:4;stroke-dasharray:none;stroke-opacity:1"
     d="m 26.647677,24.000208 -3.383463,-5.53e-4 -3.283204,5.53e-4"
     id="path873"
     inkscape:connector-curvature="0"
     sodipodi:nodetypes="ccc" />
  <path
     style="fill:none;stroke:#ffffff;stroke-width:2.66700006;stroke-linecap:round;stroke-linejoin:round;stroke-miterlimit:4;stroke-dasharray:none;stroke-opacity:1"
     d="m 23.333333,20.666667 0.0043,3.278298 -0.0043,3.388368"
     id="path873-6"
     inkscape:connector-curvature="0"
     sodipodi:nodetypes="ccc" />
  <path
     style="fill:none;stroke:#e98b8b;stroke-width:1.33333337;stroke-linecap:square;stroke-linejoin:miter;stroke-miterlimit:4;stroke-dasharray:none;stroke-opacity:1"
     d="M 16.666667,30 V 18 h 0.666666"
     id="path825"
     inkscape:connector-curvature="0" />
</svg>
